Results
version=1
nRows=26
nColumns=24
inDegrees=yes
endheader
time	pelvis_tilt	pelvis_list	pelvis_rotation	pelvis_tx	pelvis_ty	pelvis_tz	hip_flexion_r	hip_adduction_r	hip_rotation_r	knee_angle_r	ankle_angle_r	subtalar_angle_r	mtp_angle_r	hip_flexion_l	hip_adduction_l	hip_rotation_l	knee_angle_l	ankle_angle_l	subtalar_angle_l	mtp_angle_l	lumbar_extension	lumbar_bending	lumbar_rotation
      1.13300000	     -5.93916660	    -12.30513048	     -5.37615939	     -0.06307408	      0.98400649	      0.29595865	     -8.99870412	     13.51588121	     -1.81027437	     -6.96713782	      4.10590562	     -4.73803994	     -2.59559989	     31.11150095	    -15.05898043	    -12.95014859	      1.35696387	      1.29568344	     -0.23409956	     -1.48047588	     -7.15403216	     14.34493529	      9.04266355
      1.13716667	     -5.71834699	    -12.16503738	     -5.72008018	     -0.05749801	      0.98400919	      0.29656097	     -9.51875828	     13.24855048	     -1.38090680	     -7.14124393	      4.08434527	     -4.73281315	     -1.89284727	     30.80096736	    -15.14941789	    -13.04569510	      0.91999597	      1.29394790	     -0.48962812	     -1.20042498	     -7.48363773	     13.99729084	      9.55127210
      1.14133333	     -5.72456765	    -12.06474355	     -6.02358973	     -0.05192717	      0.98360350	      0.29702292	     -9.77305958	     13.05147763	     -1.00448170	     -7.35455086	      4.05969591	     -4.75851751	     -1.76295115	     30.77451480	    -15.24256489	    -12.86762030	      0.41318337	      1.18373115	     -1.07425690	     -1.15291837	     -7.52340854	     13.75309308	      9.67781023
      1.14550000	     -5.54582762	    -11.90361360	     -6.35090619	     -0.04625042	      0.98362470	      0.29758499	    -10.22389235	     12.75966803	     -0.61202948	     -7.55210314	      3.96937542	     -4.79637754	     -1.32042394	     30.49506526	    -15.29416610	    -12.88949848	     -0.09768433	      1.03386875	     -1.61488640	     -0.97532683	     -7.75443028	     13.37687312	     10.26775813
      1.14966667	     -5.47254232	    -11.79099256	     -6.67830814	     -0.04067685	      0.98346954	      0.29810669	    -10.52707655	     12.53084434	     -0.21048414	     -7.82211088	      3.93644414	     -4.85288921	     -1.13410230	     30.36308079	    -15.38953712	    -12.83615598	     -0.67599531	      0.78251331	     -2.22990792	     -0.90683723	     -7.88450792	     13.09366430	     10.45407178
      1.15383333	     -5.19693822	    -11.60973450	     -7.07176276	     -0.03504716	      0.98380344	      0.29878821	    -11.03256580	     12.18459527	      0.25773267	     -8.09783285	      3.82724117	     -4.86775881	     -0.46495979	     29.93569653	    -15.45342152	    -13.02863269	     -1.22948809	      0.59503907	     -2.68075149	     -0.63661951	     -8.27167342	     12.66843389	     11.04774299
      1.15800000	     -5.18516975	    -11.45990475	     -7.37252879	     -0.02932241	      0.98365320	      0.29923710	    -11.24355483	     11.92170215	      0.60187435	     -8.39091762	      3.69363745	     -4.96814847	     -0.28007882	     29.84936814	    -15.48667933	    -12.97365306	     -1.82345551	      0.25590582	     -3.37982156	     -0.57060859	     -8.28339618	     12.34836690	     11.24418278
      1.16216667	     -4.91776793	    -11.27137982	     -7.76240051	     -0.02364594	      0.98407728	      0.29986863	    -11.70043183	     11.55680429	      1.04402690	     -8.71739669	      3.53304613	     -4.97472970	      0.53175200	     29.40572183	    -15.52554874	    -13.20766825	     -2.37123190	     -0.05380598	     -3.88281461	     -0.25774746	     -8.64654309	     11.91078735	     11.79163425
      1.16633333	     -4.90329369	    -11.11441245	     -8.01415066	     -0.01785805	      0.98400631	      0.30018807	    -11.87859763	     11.28747152	      1.32066290	     -9.04800053	      3.33480370	     -5.10044590	      0.72051911	     29.31214140	    -15.51524164	    -13.16716667	     -2.96244038	     -0.47206203	     -4.58260967	     -0.19589095	     -8.63934716	     11.58494586	     11.98569992
      1.17050000	     -4.86502229	    -10.95610539	     -8.29895752	     -0.01208719	      0.98406475	      0.30052225	    -12.05226302	     11.00057160	      1.60955267	     -9.42164722	      3.05972696	     -5.11827203	      0.86531903	     29.15881126	    -15.51399617	    -13.18617639	     -3.52195242	     -0.89003070	     -5.22433158	     -0.15472039	     -8.68187439	     11.24066598	     12.18132535
      1.17466667	     -4.52688263	    -10.68533109	     -8.64828549	     -0.00619924	      0.98479044	      0.30105629	    -12.52706943	     10.53141665	      1.95857062	     -9.79923768	      2.81576743	     -5.20358112	      1.96404496	     28.58059179	    -15.42677746	    -13.61673641	     -3.98373449	     -1.37598030	     -5.63346044	      0.21075801	     -9.06517259	     10.69445325	     12.72398827
      1.17883333	     -4.55015265	    -10.55346156	     -8.84612282	     -0.00039972	      0.98479392	      0.30115980	    -12.59397947	     10.29513381	      2.15046768	    -10.22279286	      2.47425633	     -5.27803796	      2.09783182	     28.52309833	    -15.39938172	    -13.58633590	     -4.53990450	     -1.89208707	     -6.27106454	      0.24379587	     -9.02011383	     10.42253145	     12.85436748
      1.18300000	     -4.38251621	    -10.36165782	     -9.02015936	      0.00546884	      0.98518697	      0.30115629	    -12.82842922	      9.95170398	      2.25108499	    -10.68175585	      2.18397617	     -5.26049654	      2.69940518	     28.20895209	    -15.27678101	    -13.67536100	     -5.01018565	     -2.45277226	     -6.90954379	      0.41517807	     -9.18034625	     10.04245211	     13.31921023
      1.18716667	     -4.25853421	    -10.16277366	     -9.22457266	      0.01141669	      0.98560007	      0.30135540	    -13.01668702	      9.62649539	      2.45000496	    -11.12690707	      1.69004586	     -5.60460122	      8.40953089	     27.92806411	    -15.18616333	    -13.91922042	     -5.48246080	     -2.99719887	     -7.29518521	      2.07124332	     -9.27419486	      9.64647455	     13.43962380
      1.19133333	     -4.29473781	     -9.95485940	     -9.34870076	      0.01744384	      0.98574287	      0.30124849	    -12.99008542	      9.31840468	      2.46650575	    -11.65225873	      1.27215176	     -5.59615518	      8.43154536	     27.85336975	    -15.03870057	    -14.00686994	     -5.95620863	     -3.54238567	     -7.73415687	      2.06886998	     -9.15805224	      9.30123854	     13.47368754
      1.19550000	     -4.23763855	     -9.73736894	     -9.43448461	      0.02344281	      0.98607280	      0.30100906	    -13.02052263	      8.98902709	      2.43446058	    -12.24020432	      0.90452381	     -5.67601802	      8.51070611	     27.66337994	    -14.84371148	    -14.07659528	     -6.38060548	     -4.09826333	     -8.29961023	      2.07609377	     -9.15018347	      8.93544876	     13.62451217
      1.19966667	     -4.10836869	     -9.51188949	     -9.47325557	      0.02952515	      0.98657284	      0.30068529	    -13.11992931	      8.64297895	      2.34979071	    -12.81423806	      0.40249378	     -5.69808306	      8.71711158	     27.38641565	    -14.61517634	    -14.19194715	     -6.77260903	     -4.65893735	     -8.71213133	      2.10471587	     -9.21329785	      8.55475211	     13.73288686
      1.20383333	     -4.11227434	     -9.29492929	     -9.48148986	      0.03567900	      0.98687873	      0.30036340	    -13.05708413	      8.35245111	      2.25139835	    -13.42962560	     -0.18150213	     -5.86111278	      8.77918558	     27.28271080	    -14.40687075	    -14.30952128	     -7.21028684	     -5.10440539	     -8.89940172	      2.10923053	     -9.10236797	      8.20235025	     13.71006591
      1.20800000	     -4.03922800	     -9.03498702	     -9.49288228	      0.04181957	      0.98737469	      0.29995201	    -13.01789761	      7.99495720	      2.11145947	    -14.13573032	     -0.68735487	     -6.02884723	      8.95593931	     27.05512348	    -14.13233278	    -14.43278032	     -7.57076532	     -5.59711830	     -9.29845704	      2.12681694	     -9.08032641	      7.80340511	     13.72999560
      1.21216667	     -3.97418838	     -8.77317686	     -9.44275549	      0.04805377	      0.98787907	      0.29943783	    -12.95537755	      7.64924731	      1.90109568	    -14.85375331	     -1.30353969	     -6.19037665	      9.16044719	     26.84834414	    -13.83350605	    -14.54863682	     -7.93296737	     -6.01965941	     -9.51680090	      2.14851498	     -9.02991013	      7.40692496	     13.69990626
      1.21633333	     -3.71299706	     -8.46876904	     -9.25043554	      0.05441236	      0.98869315	      0.29855533	    -13.08507606	      7.22513230	      1.47685186	    -15.55552886	     -1.98337467	     -6.19892418	     10.32851303	     26.42661404	    -13.38982176	    -14.58836664	     -8.22763833	     -6.42860467	     -9.74356542	      2.28079703	     -9.18539357	      6.95302033	     13.60307480
      1.22050000	     -3.74519903	     -8.22051354	     -9.20420249	      0.06065171	      0.98912182	      0.29807570	    -12.85086538	      6.92776968	      1.29382568	    -16.39394286	     -2.70483135	     -6.48228583	     10.43148265	     26.32806330	    -13.13176844	    -14.73609117	     -8.61602259	     -6.71265709	     -9.78836617	      2.28924905	     -9.02774172	      6.58759662	     13.51767596
      1.22466667	     -3.62211260	     -7.93755124	     -9.00090351	      0.06699267	      0.98976987	      0.29718155	    -12.75858264	      6.57131565	      0.87578784	    -17.23347893	     -3.48218125	     -6.77290918	     15.18082299	     26.06782365	    -12.72905941	    -14.74963492	     -8.93664496	     -7.02645642	     -9.93938260	      2.69772867	     -9.02429629	      6.21156537	     13.12140505
      1.22883333	     -3.61586582	     -7.61841285	     -8.91129813	      0.07331668	      0.99030621	      0.29654774	    -12.47325505	      6.18937867	      0.56828422	    -18.21825041	     -4.16925012	     -7.00571268	     15.22642494	     25.89859426	    -12.36734928	    -14.89942911	     -9.26282500	     -7.24656504	     -9.98524643	      2.69908880	     -8.88302650	      5.76595570	     13.18262282
      1.23300000	     -3.57496750	     -7.32115568	     -8.76729390	      0.07966542	      0.99090121	      0.29583297	    -12.20928198	      5.83664307	      0.21710533	    -19.21866426	     -4.95687368	     -7.30410197	     15.24691659	     25.70711068	    -12.00807876	    -15.02937714	     -9.61226957	     -7.34086833	     -9.91675646	      2.70126650	     -8.77748607	      5.35933103	     13.11333550
      1.23716667	     -3.46267969	     -6.95890607	     -8.60605736	      0.08602995	      0.99164537	      0.29502129	    -11.97085992	      5.39852965	     -0.17339700	    -20.29121235	     -5.69750404	     -7.61132054	     15.34975213	     25.39747237	    -11.55168253	    -15.14095323	     -9.86146005	     -7.55340915	     -9.93185336	      2.70010311	     -8.75427385	      4.87077223	     12.87488616
